<svg version="1.1" xmlns="http://www.w3.org/2000/svg" xmlns:xlink="http://www.w3.org/1999/xlink" width="512" height="512" viewBox="0 0 512 512">
<g>
</g>
	<path d="M260.045 284.754c-1.321 3.44-7.414 7.434-10.732 4.178-62.72-40.346-113.889-117.401-129.075-154.655-15.155-37.284 1.219-79.34 34.222-91.525l22.334-8.222c46.807-5.867 87.204 94.003 83.251 250.225z" fill="#ffffff"/>
	<path d="M290.181 294.113c-2.12-0.215-5.663-3.123-4.67-5.529 7.035-42.209 36.188-83.394 52.45-97.813 16.24-14.418 42.301-11.479 56.279 5.653l9.442 11.53c14.019 17.090 11.5 42.281-5.601 56.289 0 0-19.036 25.037-107.899 29.87z" fill="#ffffff"/>
	<path d="M231.127 311.255c1.526 1.495 2.427 5.98 0.164 7.219-32.010 28.375-80.569 42.107-102.308 43.12-21.698 0.983-40.090-17.695-40.243-39.803l-0.041-14.92c-0.164-22.077 17.623-40.141 39.701-40.254 0.010 0 30.597-7.516 102.727 44.636z" fill="#ffffff"/>
	<path d="M251.618 334.827c1.7-1.321 6.216-1.69 7.219 0.727 24.32 35.175 32.154 85.033 30.546 106.69-1.639 21.709-22.354 37.724-44.319 35.205l-14.848-1.68c-21.945-2.519-37.703-22.323-35.205-44.298 0 0-3.81-31.252 56.606-96.645z" fill="#ffffff"/>
	<path d="M284.774 329.462c-0.809-1.935 0.062-6.421 2.622-6.769 40.407-13.937 90.532-8.048 110.992-0.656 20.459 7.383 30.279 31.683 21.965 52.132l-5.601 13.844c-8.315 20.45-31.662 30.31-52.132 21.975-0.010-0.021-31.14-4.762-77.844-80.527z" fill="#ffffff"/>
</svg>