<?xml version="1.0" encoding="utf-8"?>
<!-- Generator: Adobe Illustrator 18.1.0, SVG Export Plug-In . SVG Version: 6.00 Build 0)  -->
<svg version="1.1" id="Layer_1" xmlns="http://www.w3.org/2000/svg" xmlns:xlink="http://www.w3.org/1999/xlink" x="0px" y="0px"
	 viewBox="0 0 500 500" enable-background="new 0 0 500 500" xml:space="preserve">
<g>
	<polygon fill="#ffffff" points="500,116.6 415.2,116.6 415.2,31.8 389.9,31.8 389.9,116.6 305.1,116.6 305.1,142.1 389.9,142.1 
		389.9,226.8 415.2,226.8 415.2,142.1 500,142.1 	"/>
	<path fill="#ffffff" d="M243.4,293.5c0,0-13.2-12.3-28.5-25.2c0,0-27.5-19.7-26.7-31.7c0.8-12,8.5-18,8.5-18l21.3-18.5
		c0,0,29.5-22.2,32.5-58c3-35.7-0.8-73.6-34.9-88.8c0,0-1.1-3.2,14.3-5.4S271,45,270.6,31.8H146.2c0,0-79.5,4.2-107.9,56.9
		C9.7,141.4,27.8,215,91.5,228.7c0,0,11.8,3.7,42,3.4v27.2c0,0,0.4,4.8,6.6,8.3c6.2,3.6,10.2,15.2,9.8,19.5c0,0-63.5-2.6-108.7,22.5
		S0.4,379.3,0.1,381.4c-0.3,2-4.5,87.7,131,86.8c135.4-1.1,150.2-95.2,136.4-136.4C267.4,331.8,261.7,313,243.4,293.5z M84,145.5
		c-11.5-41.9,3-82.6,32.6-90.7s63,19.2,74.5,61.2c11.5,41.9-3,82.6-32.8,90.7C128.9,214.7,95.5,187.4,84,145.5z M145.1,437.3
		c-50.1,2.5-92.1-25-93.9-61.2s37.4-67.6,87.4-70c50.1-2.5,92.1,24.8,93.9,61.2C234.3,403.5,195.2,434.8,145.1,437.3z"/>
</g>
</svg>
