<?xml version="1.0" encoding="utf-8"?>
<!-- Generator: Adobe Illustrator 18.1.0, SVG Export Plug-In . SVG Version: 6.00 Build 0)  -->
<svg version="1.1" id="Layer_1" xmlns="http://www.w3.org/2000/svg" xmlns:xlink="http://www.w3.org/1999/xlink" x="0px" y="0px"
	 viewBox="0 0 500 500" enable-background="new 0 0 500 500" xml:space="preserve">
<path fill="#ffffff" d="M441.4,0H58.6C26.3,0,0,26.3,0,58.6v382.9C0,473.7,26.3,500,58.6,500h382.9c32.3,0,58.6-26.3,58.6-58.6V58.6
	C500,26.4,473.6,0,441.4,0z M250,155.5c52.2,0,94.5,42.3,94.5,94.5s-42.3,94.5-94.5,94.5s-94.5-42.3-94.5-94.5
	S197.8,155.5,250,155.5z M443,423.3c0,10.7-8.8,19.5-19.5,19.5H75.5c-10.7,0-19.5-8.8-19.5-19.5V211.2H102c-3.2,12.4-5,25.5-5,38.8
	c0,84.6,68.6,153,153,153s153-68.4,153-153c0-13.5-1.8-26.4-5-38.8H443L443,423.3L443,423.3z M443,134.9c0,10.7-8.8,19.5-19.5,19.5
	h-57c-10.7,0-19.5-8.8-19.5-19.5v-57c0-10.7,8.8-19.5,19.5-19.5h57c10.7,0,19.5,8.8,19.5,19.5V134.9z"/>
</svg>
