<?xml version="1.0" encoding="utf-8"?>
<!-- Generator: Adobe Illustrator 18.1.0, SVG Export Plug-In . SVG Version: 6.00 Build 0)  -->
<svg version="1.1" id="Layer_1" xmlns="http://www.w3.org/2000/svg" xmlns:xlink="http://www.w3.org/1999/xlink" x="0px" y="0px"
	 viewBox="0 0 500 500" enable-background="new 0 0 500 500" xml:space="preserve">
<path fill="#ffffff" d="M442.8,158.3C434,45.5,334.1,13.5,334.1,13.5C224.6-25.4,144.2,30.9,144.2,30.9
	C34,101,58.7,209.5,58.7,209.5C70.6,278.7,117,290,117,290c9.1,2.8,12.1-6.6,12.1-6.6l7.4-29.3c0.9-3.7-2.6-7.6-2.6-7.6l-6.2-7.4
	c-16.6-23.8-15.5-53.6-15.5-53.6c4.2-78.1,52.8-110.4,77-122.4c24.2-11.8,97.8-30.5,151.2,15.8s25.1,145,25.1,145
	c-10.6,42.6-36.9,68.6-36.9,68.6c-32.9,30.1-64.1,16.4-64.1,16.4c-36-15.2-28.1-49.7-28.1-49.7l3-12l6.6-23c0,0,18-47.5,16.3-74.3
	c-1.7-26.7-20.8-45.1-53.4-36.1s-39,54.2-39,54.2c-5.3,38.4,4.1,57,8,63l-0.4,0.3l-34.2,144.6c-8.5,36.4-8.5,57.2-7.8,78.7
	s4.3,43.1,4.3,43.1c3.2,4.6,7,0,7,0c39.7-50.6,49.3-85.8,49.3-85.8l22.2-86.6c13,21,32.1,27.7,32.1,27.7
	c70.5,30.1,131.7-27.1,131.7-27.1S451.8,271.1,442.8,158.3z"/>
</svg>
